<svg width="48" height="48" viewBox="0 0 48 48" fill="none" xmlns="http://www.w3.org/2000/svg">
<rect width="48" height="48" rx="12" fill="#EBF8FF"/>
<path d="M23.2969 23.7656L21.2344 28.9219L20.2031 23.8594C20.1094 23.4844 19.7344 23.2031 19.3125 23.2969C18.9375 23.3438 18.6562 23.7656 18.75 24.1875L20.25 31.6875C20.2969 32.0156 20.5781 32.25 20.9062 32.25C21.2344 32.2969 21.5625 32.1094 21.6562 31.7812L24 26.0625L26.2969 31.7812C26.3906 32.1094 26.6719 32.25 27 32.25C27 32.25 27 32.25 27.0469 32.25C27.375 32.25 27.6562 32.0156 27.7031 31.6875L29.2031 24.1875C29.2969 23.7656 29.0156 23.3906 28.6406 23.2969C28.2188 23.2031 27.8438 23.4844 27.75 23.8594L26.7188 28.9219L24.6562 23.7656C24.4219 23.1562 23.5312 23.1562 23.2969 23.7656ZM32.1094 17.9062L27.0938 12.8906C26.5312 12.3281 25.7812 12 24.9844 12H18C16.3125 12 15 13.3594 15 15V33C15 34.6875 16.3125 36 18 36H30C31.6406 36 33 34.6875 33 33V20.0156C33 19.2188 32.6719 18.4688 32.1094 17.9062ZM25.5 13.6406C25.6875 13.6875 25.875 13.7812 26.0625 13.9688L31.0312 18.9375C31.2188 19.125 31.3125 19.3125 31.3594 19.5H26.25C25.8281 19.5 25.5 19.1719 25.5 18.75V13.6406ZM31.5 33C31.5 33.8438 30.7969 34.5 30 34.5H18C17.1562 34.5 16.5 33.8438 16.5 33V15C16.5 14.2031 17.1562 13.5 18 13.5H24V18.75C24 20.0156 24.9844 21 26.25 21H31.5V33Z" fill="#4299E1"/>
</svg>
