<svg width="48" height="48" viewBox="0 0 48 48" fill="none" xmlns="http://www.w3.org/2000/svg">
<rect width="48" height="48" rx="12" fill="#FAF5FF"/>
<path d="M32.1094 17.9062L27.0938 12.8906C26.5312 12.3281 25.7812 12 24.9844 12H18C16.3125 12 15 13.3594 15 15V33C15 34.6875 16.3125 36 18 36H30C31.6406 36 33 34.6875 33 33V20.0156C33 19.2188 32.6719 18.4688 32.1094 17.9062ZM25.5 13.6406C25.6875 13.6875 25.875 13.7812 26.0625 13.9688L31.0312 18.9375C31.2188 19.125 31.3125 19.3125 31.3594 19.5H26.25C25.8281 19.5 25.5 19.1719 25.5 18.75V13.6406ZM31.5 33C31.5 33.8438 30.7969 34.5 30 34.5H18C17.1562 34.5 16.5 33.8438 16.5 33V15C16.5 14.2031 17.1562 13.5 18 13.5H24V18.75C24 20.0156 24.9844 21 26.25 21H31.5V33ZM24 26.4844L21.9844 23.5781C21.75 23.25 21.2812 23.1562 20.9062 23.3906C20.5781 23.625 20.4844 24.0938 20.7188 24.4688L23.0625 27.75L20.7188 31.0781C20.4844 31.4531 20.5781 31.9219 20.9062 32.1562C21.0469 32.25 21.1875 32.25 21.3281 32.25C21.5625 32.25 21.7969 32.1562 21.9375 31.9688L24 29.0625L25.9688 31.9688C26.1094 32.1562 26.3438 32.25 26.625 32.25C26.7656 32.25 26.9062 32.25 27.0469 32.1562C27.375 31.9219 27.4688 31.4531 27.2344 31.0781L24.8906 27.75L27.2344 24.4688C27.4688 24.0938 27.375 23.625 27.0469 23.3906C26.6719 23.1562 26.2031 23.25 25.9688 23.5781L24 26.4844Z" fill="#9F7AEA"/>
</svg>
