<svg width="48" height="48" viewBox="0 0 48 48" fill="none" xmlns="http://www.w3.org/2000/svg">
<rect width="48" height="48" rx="12" fill="#F0FFF4"/>
<path d="M23.9062 25.4062L22.6406 27.3281C22.0781 26.625 20.9062 26.6719 20.3906 27.4219L18.1875 30.7969C17.9062 31.2656 17.9062 31.8281 18.1406 32.25C18.375 32.7188 18.8438 33 19.3594 33H28.5469C29.0625 33 29.5312 32.7188 29.7656 32.25C30 31.7812 30 31.2656 29.7188 30.7969L26.2031 25.4062C25.7344 24.6094 24.4219 24.6094 23.9062 25.4062ZM28.4062 31.5H19.4531L21.5625 28.4062L22.0312 29.1094C22.3125 29.5312 23.0156 29.5312 23.2969 29.1094L25.0781 26.3438L28.4062 31.5ZM19.5 25.125C20.1094 25.125 20.625 24.6562 20.625 24C20.625 23.3906 20.1094 22.875 19.5 22.875C18.8438 22.875 18.375 23.3906 18.375 24C18.375 24.6562 18.8438 25.125 19.5 25.125ZM32.1094 17.9062L27.0938 12.8906C26.5312 12.3281 25.7812 12 24.9844 12H18C16.3125 12 15 13.3594 15 15V33C15 34.6875 16.3125 36 18 36H30C31.6406 36 33 34.6875 33 33V20.0156C33 19.2188 32.6719 18.4688 32.1094 17.9062ZM25.5 13.6406C25.6875 13.6875 25.875 13.7812 26.0625 13.9688L31.0312 18.9375C31.2188 19.125 31.3125 19.3125 31.3594 19.5H26.25C25.8281 19.5 25.5 19.1719 25.5 18.75V13.6406ZM31.5 33C31.5 33.8438 30.7969 34.5 30 34.5H18C17.1562 34.5 16.5 33.8438 16.5 33V15C16.5 14.2031 17.1562 13.5 18 13.5H24V18.75C24 20.0156 24.9844 21 26.25 21H31.5V33Z" fill="#48BB78"/>
</svg>
