<svg width="48" height="48" viewBox="0 0 48 48" fill="none" xmlns="http://www.w3.org/2000/svg">
<rect width="48" height="48" rx="12" fill="#FFF5F5"/>
<path d="M32.1094 17.9062L27.0938 12.8906C26.5312 12.3281 25.7812 12 24.9844 12H18C16.3125 12 15 13.3594 15 15V33C15 34.6875 16.3125 36 18 36H30C31.6406 36 33 34.6875 33 33V20.0156C33 19.2188 32.6719 18.4688 32.1094 17.9062ZM25.5 13.6406C25.6875 13.6875 25.875 13.7812 26.0625 13.9688L31.0312 18.9375C31.2188 19.125 31.3125 19.3125 31.3594 19.5H26.25C25.8281 19.5 25.5 19.1719 25.5 18.75V13.6406ZM31.5 33C31.5 33.8438 30.7969 34.5 30 34.5H18C17.1562 34.5 16.5 33.8438 16.5 33V15C16.5 14.2031 17.1562 13.5 18 13.5H24V18.75C24 20.0156 24.9844 21 26.25 21H31.5V33ZM24.4688 25.5938C24.9375 24.0938 24.9844 22.9219 24.9844 22.6875C24.9844 21.75 24.2344 21 23.2969 21C22.4062 21 21.6562 21.75 21.6562 22.6875C21.6562 22.6875 21.6562 24.0469 22.3125 25.6875C21.9844 26.5781 21.5625 27.5156 21.0938 28.4062C20.0156 28.9219 19.125 29.4844 18.4688 30.1406C18.1406 30.4688 18 30.8906 18 31.3594C18 32.2969 18.7031 33 19.6406 33C20.1562 33 20.6719 32.7656 21 32.3438C21.2812 31.9688 21.8438 31.125 22.5 30C23.2969 29.6719 24.1875 29.4375 25.2188 29.2031C25.7812 29.5781 27.1875 30.4219 28.1719 30.4219C29.2031 30.4219 30 29.625 30 28.6406C30 27.6562 29.1562 26.8125 28.125 26.8125C27.375 26.8125 26.25 27 25.6875 27.0938C25.2188 26.6719 24.7969 26.1562 24.4688 25.5938ZM19.9219 31.5469C19.7344 31.7812 19.3125 31.6875 19.3125 31.3125C19.3125 31.2188 19.3594 31.1719 19.4062 31.125C19.8281 30.6562 20.3906 30.2812 20.9531 29.9531C20.4844 30.75 20.1094 31.2656 19.9219 31.5469ZM23.2969 22.3594C23.4844 22.3594 23.625 22.5 23.625 22.6875C23.625 23.3906 23.4375 24.3281 23.3438 24.7031C22.9688 23.625 22.9688 22.7344 22.9688 22.6875C22.9688 22.5 23.1094 22.3594 23.2969 22.3594ZM22.5 28.5469C22.8281 27.9375 23.1562 27.1875 23.4844 26.4375C23.7656 26.9531 24.1875 27.4688 24.7031 27.9375C24 28.125 23.25 28.3125 22.5 28.5469ZM28.125 28.1719C28.4062 28.1719 28.6406 28.3594 28.6406 28.6875C28.6406 28.9219 28.4531 29.1094 28.1719 29.1094C27.75 29.1094 26.7656 28.6406 26.2969 28.3594C26.3438 28.3594 27.5625 28.1719 28.125 28.1719Z" fill="#F56565"/>
</svg>
